# xmcd
#
# Track frame offsets: 
#        150
#        34536
#        74848
#        91394
#        109774
#        133442
#        171680
#        198453
#        216231
#        244559
#        260256
#
# Disc length: 4345 seconds
#
# Revision: 0
# Processed by: cddbd v1.5.2PL0 Copyright (c) Steve Scherf et al.
# Submitted via: ExactAudioCopyFreeDBPlugin 1.0
#
DISCID=ac10f70b
DTITLE=Bach (Ton Koopman) - Organ Spectacula
DYEAR=2001
DGENRE=Classical
TTITLE0=Toccata and Fugue in D minor BWV 565
TTITLE1=Vater unser im Himmelreich BWV 682
TTITLE2=Fugue in G minor BWV 578
TTITLE3=Wachet auf, ruft uns die Stimme BWV 645
TTITLE4=Nun kommt der Heiden Heiland BWV 659
TTITLE5=Prelude and Fugue in E flat major BWV 552 - Prelude
TTITLE6=Prelude and Fugue in E flat major BWV 552 - Fugue
TTITLE7=Trio Sonata in G major BWV 530 - Vivace
TTITLE8=Trio Sonata in G major BWV 530 - Lente
TTITLE9=Trio Sonata in G major BWV 530 - Allegro
TTITLE10=Passacaglia in C minor BWV 582
EXTD=
EXTT0=
EXTT1=
EXTT2=
EXTT3=
EXTT4=
EXTT5=
EXTT6=
EXTT7=
EXTT8=
EXTT9=
EXTT10=
PLAYORDER=
